<svg width="542" height="319" viewBox="0 0 542 319" fill="none" xmlns="http://www.w3.org/2000/svg">
<g clip-path="url(#clip0_4661_15879)">
<rect width="542" height="319" rx="48" fill="#D5F27C"/>
<path d="M162.732 223.798H162.024C157.965 223.42 154.661 221.863 152.112 219.125C149.563 216.293 148.289 212.942 148.289 209.071C148.289 206.806 148.431 204.115 148.714 201C149.752 182.12 150.271 167.912 150.271 158.378C150.271 155.357 150.177 150.92 149.988 145.067C149.799 139.215 149.091 133.55 147.864 128.075C146.637 123.166 144.796 120.712 142.342 120.712H141.634C139.085 121.845 137.008 125.385 135.403 131.332C133.893 137.185 132.76 143.463 132.005 150.165C131.25 156.868 130.778 161.965 130.589 165.458C130.494 167.535 130.164 169.942 129.598 172.68C129.031 175.417 127.804 177.919 125.916 180.185C124.122 182.356 121.243 183.677 117.278 184.149H116.004C112.7 184.149 109.726 183.205 107.083 181.317C104.44 179.335 102.693 176.55 101.844 172.963C101.466 170.131 101.089 166.166 100.711 161.068C100.333 155.027 99.8141 148.702 99.1533 142.094C97.5485 127.556 94.8109 120.287 90.9404 120.287L89.9492 120.429C84.5684 123.166 81.6419 138.507 81.1699 166.449L81.0283 182.733C81.0283 187.831 81.0755 192.74 81.1699 197.46L81.3115 208.222C81.3115 212.187 79.8955 215.585 77.0635 218.417C74.2314 221.249 70.7858 222.665 66.7266 222.665C62.7617 222.665 59.3633 221.249 56.5312 218.417C53.6992 215.585 52.2832 212.187 52.2832 208.222C52.2832 193.59 52.472 179.477 52.8496 165.883C53.3216 152.195 54.596 139.923 56.6729 129.066C58.8441 118.116 62.3841 109.337 67.293 102.729C72.2018 96.1204 78.9987 92.3916 87.6836 91.542L90.5156 91.4004C101.372 91.4004 110.151 96.1676 116.854 105.702C118.836 102.776 121.196 100.18 123.934 97.9141C129.598 93.666 135.923 91.542 142.908 91.542C144.324 91.542 145.787 91.6364 147.298 91.8252C158.815 93.6188 166.792 100.18 171.229 111.508C175.76 122.742 178.167 137.043 178.45 154.413L178.592 164.892C178.592 179.146 178.12 194.156 177.176 209.921C176.893 213.886 175.382 217.19 172.645 219.833C169.907 222.476 166.603 223.798 162.732 223.798ZM232.27 224.081C220.47 224.081 210.416 220.022 202.109 211.903C195.312 204.729 190.45 195.761 187.524 184.999C184.598 174.237 182.898 163.523 182.426 152.855C181.954 142.188 181.718 132.465 181.718 123.686L181.86 106.41C181.86 101.973 183.418 98.1973 186.533 95.082C189.648 91.9668 193.424 90.4092 197.861 90.4092C202.298 90.4092 206.074 91.9668 209.189 95.082C212.304 98.1973 213.862 101.973 213.862 106.41L213.72 125.385C213.72 130.671 213.815 136.335 214.004 142.377C214.948 166.732 218.535 182.356 224.765 189.247C225.52 190.002 226.417 190.663 227.456 191.229C228.588 191.796 230.193 192.079 232.27 192.079C237.179 192.079 240.861 189.105 243.315 183.158C245.864 177.117 247.657 169.281 248.696 159.652C249.829 149.929 250.631 139.356 251.103 127.934C251.481 120.193 251.906 113.065 252.378 106.552C252.944 102.021 254.738 98.4805 257.758 95.9316C260.874 93.3828 264.366 92.1084 268.237 92.1084C273.335 92.1084 277.441 93.902 280.556 97.4893C283.105 100.699 284.379 104.286 284.379 108.251V109.525C283.813 115.284 283.435 121.656 283.247 128.642L283.105 129.35C282.822 136.996 282.303 145.115 281.547 153.705C280.887 162.296 279.659 170.744 277.866 179.052C276.072 187.359 273.382 194.911 269.795 201.708C266.207 208.41 261.393 213.839 255.351 217.992C249.309 222.051 241.616 224.081 232.27 224.081ZM366.803 225.214C363.31 225.214 359.628 223.939 355.758 221.391C351.888 218.747 348.017 215.585 344.147 211.903C340.276 208.127 336.547 204.304 332.96 200.434C327.296 194.109 322.529 189.53 318.658 186.698C318.564 191.607 318.517 196.563 318.517 201.566V209.071C318.517 213.414 317.101 217.095 314.269 220.116C311.437 223.137 307.897 224.647 303.649 224.647C299.589 224.647 296.191 223.231 293.453 220.399C290.716 217.567 289.252 214.075 289.064 209.921C288.969 205.673 288.922 201.472 288.922 197.318C288.922 168.62 290.574 146.059 293.878 129.633C296.144 118.305 299.495 110.139 303.932 105.136C310.446 99.0941 318.422 96.0732 327.863 96.0732H329.987C340.465 96.6396 350.094 99.6133 358.873 104.994C371.806 113.679 378.273 124.205 378.273 136.571C378.273 139.875 377.801 143.321 376.857 146.908C373.081 158.897 364.962 168.007 352.501 174.237C361.847 181.601 370.532 190.427 378.556 200.717C380.538 203.643 381.529 206.758 381.529 210.062C381.529 214.783 379.594 218.795 375.724 222.099C372.892 224.175 369.918 225.214 366.803 225.214ZM320.499 151.864C331.167 150.637 338.483 148.513 342.447 145.492C346.507 142.377 348.536 139.734 348.536 137.562C348.536 135.958 347.734 134.353 346.129 132.748C340.843 128.594 334.895 126.518 328.287 126.518C326.966 126.518 325.833 126.659 324.889 126.942C323.095 131.19 321.632 139.498 320.499 151.864ZM461.971 225.214C458.478 225.214 454.796 223.939 450.926 221.391C447.055 218.747 443.185 215.585 439.314 211.903C435.444 208.127 431.715 204.304 428.128 200.434C422.464 194.109 417.696 189.53 413.826 186.698C413.732 191.607 413.684 196.563 413.684 201.566V209.071C413.684 213.414 412.268 217.095 409.436 220.116C406.604 223.137 403.064 224.647 398.816 224.647C394.757 224.647 391.359 223.231 388.621 220.399C385.883 217.567 384.42 214.075 384.231 209.921C384.137 205.673 384.09 201.472 384.09 197.318C384.09 168.62 385.742 146.059 389.046 129.633C391.311 118.305 394.663 110.139 399.099 105.136C405.613 99.0941 413.59 96.0732 423.03 96.0732H425.154C435.633 96.6396 445.262 99.6133 454.041 104.994C466.974 113.679 473.44 124.205 473.44 136.571C473.44 139.875 472.968 143.321 472.024 146.908C468.248 158.897 460.13 168.007 447.669 174.237C457.014 181.601 465.699 190.427 473.723 200.717C475.706 203.643 476.697 206.758 476.697 210.062C476.697 214.783 474.762 218.795 470.891 222.099C468.059 224.175 465.086 225.214 461.971 225.214ZM415.667 151.864C426.334 150.637 433.65 148.513 437.615 145.492C441.674 142.377 443.704 139.734 443.704 137.562C443.704 135.958 442.902 134.353 441.297 132.748C436.01 128.594 430.063 126.518 423.455 126.518C422.133 126.518 421 126.659 420.056 126.942C418.263 131.19 416.8 139.498 415.667 151.864Z" fill="#C8E274"/>
<path d="M285.851 82.0574C279.077 78.7211 253.335 69.8053 246.665 72.0236L246.315 72.0508C242.902 72.2864 238.81 71.6731 235.561 72.378C215.181 76.8878 196.228 94.5242 185.458 111.782C181.817 117.616 173.254 134.827 168.929 137.218C150.264 147.537 162.647 154.797 171.679 166.744C173.13 168.663 173.378 173.248 174.194 176.085L174.609 176.898C175.038 180.234 175.71 180.682 178.299 182.951C186.139 197.961 208.47 217.511 224.833 223.714C226.117 224.201 228.604 224.647 229.931 225.123C232.376 226.043 232.563 225.805 235.152 225.169C235.864 225.693 236.393 226.033 237.304 226.141C256.352 228.401 276.002 222.331 293.11 214.386C294.596 213.693 299.291 211.405 300.345 210.566L307.385 206.777C313.916 202.767 317.811 198.859 323.639 194.65C328.116 191.871 346.345 175.108 349.382 171.268C351.875 163.294 352.043 158.837 351.392 150.35C333.646 122.53 315.84 96.8221 285.851 82.0574Z" fill="#010101"/>
<path d="M246.064 72.9953C251.867 87.0664 253.825 108.272 253.281 129.86C252.731 151.733 249.619 173.847 245.453 189.049C244.408 192.861 241.851 199.66 240.308 203.647C238.821 207.484 235.81 212.731 233.827 216.691C233.379 217.586 232.386 219.107 231.374 220.698C230.879 221.477 230.388 222.262 229.981 222.961C229.774 223.317 229.58 223.666 229.417 223.992C228.841 223.829 228.195 223.671 227.586 223.522C226.618 223.285 225.739 223.066 225.162 222.847C217.122 219.799 207.544 213.437 198.982 205.938C190.418 198.437 182.968 189.885 179.122 182.523L179.042 182.369L178.911 182.254L178.019 181.47C177.235 180.777 176.76 180.322 176.415 179.808C175.991 179.177 175.739 178.404 175.53 176.78L175.509 176.62L175.436 176.477L175.065 175.749C174.683 174.391 174.44 172.675 174.086 170.89C173.91 170.008 173.709 169.125 173.453 168.33C173.199 167.544 172.873 166.785 172.42 166.185C170.141 163.171 167.631 160.428 165.522 157.942C163.38 155.417 161.66 153.166 160.777 151.018C159.918 148.93 159.866 146.989 161.021 144.966C162.217 142.87 164.763 140.584 169.378 138.032C170.048 137.662 170.734 137.046 171.414 136.309C172.104 135.56 172.832 134.637 173.578 133.599C175.07 131.523 176.677 128.937 178.25 126.264C181.433 120.853 184.422 115.197 186.245 112.275C196.941 95.1367 215.712 77.725 235.758 73.2876C237.266 72.9603 239.006 72.9328 240.859 72.9685C242.563 73.0014 244.388 73.0862 246.064 72.9953Z" fill="#46CEF5" stroke="black" stroke-width="1.8577"/>
<path d="M174.617 176.9C186.356 173.86 195.175 172.457 203.75 162.558C204.928 161.199 206.791 159.413 207.794 157.938C208.713 156.588 208.314 155.575 209.921 154.495C211.494 154.122 211.762 154.29 213.4 154.669C214.003 155.243 214.437 155.401 214.369 156.372C214.07 160.684 208.174 167.665 205.451 170.421C200.263 175.672 192.679 179.617 185.604 181.334C182.982 181.971 180.985 181.936 178.307 182.953C175.719 180.684 175.046 180.236 174.617 176.9Z" fill="#010101"/>
<path d="M213.781 113.636C219.719 113.236 225.409 116.083 228.653 121.078C231.896 126.074 232.183 132.435 229.406 137.705C226.628 142.975 221.22 146.326 215.27 146.466C206.345 146.676 198.887 139.71 198.482 130.781C198.077 121.852 204.874 114.237 213.781 113.636Z" fill="#FCFCFD" stroke="black" stroke-width="1.8577"/>
<path d="M213.739 122.893C223.016 122.709 225.794 132.909 216.254 137.558C207.529 139.549 204.045 128.599 213.739 122.893Z" fill="#010101"/>
<path d="M271.564 97.5937C280.329 98.4301 289.448 106.496 289.814 115.67C290.13 123.706 283.242 128.386 278.191 133.58C281.708 135.43 285.242 137.944 287.324 141.424C294.407 153.253 286.402 161.425 276.586 167.413C297.128 184.44 275.268 204.488 265.987 198.442C266.81 196.224 267.486 195.598 269.929 194.84C280.234 191.642 284.928 182.874 277.225 173.918C275.898 172.376 269.103 168.639 271.189 166.524C276.85 160.784 283.477 159.004 286.228 150.686C284.177 138.356 274.163 138.195 272.261 133.901C273.2 129.783 282.791 125.139 285.036 118.929C289.314 107.085 272.175 103.097 270.798 100.274C270.751 98.9081 270.863 98.8323 271.564 97.5937Z" fill="#FCFCFD"/>
<path d="M309.236 121.658C314.45 122.495 318.824 127.979 320.388 132.761C323.977 143.742 319.148 150.378 308.871 153.79C310.598 155.791 312.854 157.653 314.715 159.778C317.281 162.667 318.533 166.494 318.175 170.344C317.385 179.219 308.159 185.402 299.586 184.48C299.15 183.875 298.913 183.392 298.555 182.746C298.608 182.019 298.74 180.85 299.49 180.633C306.764 178.523 309.196 178.233 313.639 171.403C313.587 160.045 306.421 162.625 303.319 153.39C301.359 147.563 313.158 149.405 315.461 144.593C317.649 140.028 316.46 133.615 313.178 129.735C311.3 127.506 308.452 127.136 307.73 124.475C307.842 123.032 308.222 122.824 309.236 121.658Z" fill="#FCFCFD"/>
<path d="M416.581 103.785C417.473 103.705 418.184 103.792 418.718 104.034C419.095 104.739 419.234 105.894 419.013 107.582C418.777 109.385 418.159 111.612 417.245 114.153C415.418 119.232 412.471 125.408 409.307 131.683C406.158 137.926 402.773 144.305 400.137 149.668C398.816 152.358 397.667 154.822 396.815 156.924C395.972 159.002 395.386 160.805 395.24 162.146C394.814 166.067 395.318 170.636 395.879 175.115C396.446 179.646 397.07 184.087 396.963 187.928L396.962 187.953L396.963 187.979C397.032 190.567 397.411 196.268 397.926 201.814C398.184 204.589 398.477 207.337 398.784 209.646C399.078 211.86 399.396 213.737 399.722 214.841C399.834 215.941 400.013 217.335 399.985 218.659C399.971 219.331 399.903 219.941 399.762 220.447C399.676 220.756 399.567 221.003 399.443 221.199C399.171 221.126 398.824 220.993 398.399 220.783C397.737 220.457 396.962 219.984 396.105 219.394C394.39 218.213 392.409 216.61 390.428 214.898C386.517 211.518 382.681 207.784 380.952 206.156C380.391 205.35 379.337 204.14 378.062 202.76C376.721 201.309 375.089 199.617 373.419 197.91C370.483 194.909 367.447 191.873 365.614 189.945L364.905 189.191C362.14 186.194 359.704 182.993 357.32 179.815C355.053 176.792 352.825 173.78 350.434 171.041C352.782 163.364 352.969 158.821 352.362 150.696C360.981 141.835 366.908 134.462 376.794 126.704C386.508 119.08 395.261 111.702 406.852 107.251L406.862 107.247L406.873 107.243C408.581 106.54 410.881 105.381 413.277 104.565C414.454 104.164 415.584 103.875 416.581 103.785Z" fill="#46CEF5" stroke="black" stroke-width="1.8577"/>
<path d="M395.822 126.868C398.358 126.92 401.195 126.793 401.979 129.974C401.788 130.486 401.313 131.573 400.823 131.775C392.414 135.248 384.341 139.115 376.399 143.607C374.419 144.729 372.976 144.841 370.977 146.254C369.246 146.875 368.725 147.323 367.192 146.73C365.864 144.233 368.911 142.641 370.641 141.058C375.988 136.173 382.208 132.86 388.751 129.914C390.976 128.913 393.395 128.256 395.435 127.093L395.822 126.868Z" fill="#010101"/>
<path d="M365.201 168.123C370.761 170.88 389.631 185.869 391.178 193.336C391.279 193.832 390.099 194.448 389.573 194.82C389.22 194.63 387.22 193.68 387.137 193.624C382.264 190.172 364.961 174.665 363.338 170.595C363.724 169.035 363.755 169.423 365.201 168.123Z" fill="#010101"/>
<path d="M376.607 152.604C380.053 151.84 384.966 154.894 383.705 158.777C382.06 160.022 381.324 159.805 379.544 158.874C376.254 158.953 371.991 159.658 369.928 156.521L370.207 155.471C372.183 153.256 373.912 153.08 376.607 152.604Z" fill="#010101"/>
<path d="M492.043 385.104H0.765365L-8 225.658C-8 225.658 0.347966 190.179 34.992 191.014C69.6361 191.848 79.6536 235.675 79.6536 235.675C79.6536 235.675 103.028 186.84 138.507 201.449C173.986 216.058 150.194 271.571 150.194 271.571C150.194 271.571 170.646 228.162 202.369 243.188C237.208 259.691 219.065 297.45 219.065 297.45C219.065 297.45 240.352 260.719 273.744 264.476C314.037 269.009 323.832 306.215 323.832 306.215C323.832 306.215 331.345 245.693 372.667 254.458C414.531 263.338 394.372 322.077 394.372 322.077C394.372 322.077 405.642 289.937 433.19 297.45C464.095 305.879 449.019 348.775 446.471 355.434C448.211 351.296 456.812 333.932 477.434 337.52C507.904 342.822 492.043 385.104 492.043 385.104Z" fill="#9D89F8"/>
<path d="M0.765364 385.104H492.043C492.043 385.104 507.904 342.822 477.434 337.52C454.06 333.453 446.129 356.303 446.129 356.303C446.129 356.303 466.718 306.594 433.19 297.45C405.642 289.937 394.372 322.077 394.372 322.077C394.372 322.077 414.531 263.338 372.667 254.458C331.345 245.693 323.832 306.215 323.832 306.215C323.832 306.215 314.037 269.009 273.744 264.476C240.352 260.719 219.065 297.45 219.065 297.45C219.065 297.45 237.208 259.691 202.369 243.188C170.646 228.162 150.194 271.571 150.194 271.571C150.194 271.571 173.986 216.058 138.507 201.449C103.028 186.84 79.6536 235.675 79.6536 235.675C79.6536 235.675 69.6361 191.848 34.992 191.014C0.347966 190.179 -8 225.658 -8 225.658L0.765364 385.104Z" stroke="black" stroke-width="2.22612"/>
<path d="M149.36 329.589C149.36 329.589 151.03 293.575 186.509 287.315C221.988 281.056 232.005 317.785 232.005 317.785C232.005 317.785 237.014 303.175 256.632 303.175C276.249 303.175 287.102 332.511 287.102 332.511" stroke="black" stroke-width="2.22612" stroke-linecap="round"/>
<path d="M497.231 33.0079C500.168 35.491 501.611 38.6753 502.368 42.2442C503.164 45.993 503.182 50.0253 503.409 54.0822L503.457 54.9302L504.29 55.0913C505.565 55.337 506.832 55.6194 508.09 55.9392C509.824 56.3927 512.431 57.2207 514.762 58.3463C515.927 58.9091 516.994 59.5322 517.841 60.1997C518.697 60.8752 519.257 61.5407 519.517 62.1661C520.268 63.9732 520.128 65.5709 519.434 67.0388C518.719 68.5509 517.393 69.9671 515.714 71.269C512.344 73.8808 507.901 75.7769 505.243 76.9986L504.553 77.3165L504.612 78.0737C504.836 80.9161 504.792 86.6115 503.58 91.7216C502.974 94.2772 502.093 96.6125 500.864 98.3654C499.648 100.1 498.133 101.214 496.22 101.492C495.122 101.651 493.933 101.282 492.613 100.411C491.294 99.5402 489.955 98.24 488.607 96.7372C487.258 95.2332 485.965 93.6018 484.685 92.0597C483.431 90.5479 482.179 89.1072 480.984 88.1099L480.584 87.7758L480.071 87.8783L478.14 88.2664L478.066 88.2805L477.996 88.3052C475.49 89.1795 470.499 90.9804 465.908 91.5213C463.606 91.7925 461.531 91.7291 459.963 91.1636C458.467 90.6241 457.429 89.6363 457.034 87.8944C456.41 85.1415 457.508 81.6596 459.349 78.0301C461.174 74.4338 463.551 71.0137 465.21 68.3382L465.609 67.6932L465.142 67.0938C463.299 64.7318 459.696 60.4232 457.711 56.0519C456.72 53.8675 456.197 51.8022 456.41 50.0425C456.614 48.3644 457.497 46.8446 459.623 45.6746C462.02 44.3561 465.568 44.4521 469.478 45.2311C473.343 46.0009 477.23 47.3609 480.218 48.2781L481.078 48.5417L481.5 47.7485C483.446 44.0922 485.412 40.4994 487.962 37.7514C490.392 35.132 493.315 33.3208 497.231 33.0079Z" fill="#FAA640" stroke="black" stroke-width="2.17793"/>
<path d="M61.6605 139.725C58.4613 141.86 56.6666 144.86 55.5097 148.32C54.2944 151.955 53.8196 155.959 53.1344 159.964L52.9905 160.801L52.1444 160.867C50.8502 160.966 49.5592 161.103 48.2733 161.279C46.4984 161.533 43.8146 162.06 41.3713 162.914C40.1496 163.341 39.0191 163.84 38.1024 164.407C37.1747 164.981 36.5433 165.579 36.214 166.171C35.2626 167.881 35.2213 169.484 35.7444 171.021C36.2833 172.605 37.44 174.162 38.9614 175.646C42.0136 178.623 46.2132 181.01 48.7158 182.525L49.3654 182.919L49.2208 183.665C48.6758 186.463 48.0744 192.127 48.6994 197.342C49.012 199.949 49.6232 202.37 50.645 204.25C51.6564 206.112 53.0356 207.39 54.9051 207.883C55.9776 208.165 57.2014 207.933 58.611 207.218C60.0206 206.502 61.4979 205.362 63.0076 204.021C64.5185 202.68 65.9882 201.206 67.434 199.818C68.8514 198.458 70.2586 197.169 71.5592 196.314L71.9947 196.027L72.4921 196.187L74.3673 196.791L74.4387 196.814L74.506 196.846C76.8963 197.999 81.651 200.353 86.1518 201.411C88.4085 201.942 90.4764 202.114 92.0985 201.729C93.646 201.363 94.7894 200.499 95.3791 198.813C96.311 196.149 95.615 192.565 94.1965 188.75C92.791 184.97 90.817 181.303 89.4724 178.457L89.1483 177.77L89.6803 177.228C91.7795 175.09 95.8468 171.217 98.3143 167.099C99.5473 165.041 100.3 163.048 100.288 161.276C100.276 159.585 99.5701 157.975 97.5904 156.572C95.359 154.99 91.8225 154.684 87.8493 155.015C83.9226 155.342 79.9057 156.252 76.8332 156.825L75.9495 156.99L75.6199 156.154C74.1005 152.3 72.5541 148.508 70.3325 145.489C68.2148 142.611 65.5158 140.48 61.6605 139.725Z" fill="#46CEF5" stroke="black" stroke-width="2.17793"/>
<path d="M465.885 195C466.542 195.032 467.972 195.165 468.173 195.719C470.785 202.9 469.482 217.932 472.448 224.593C475.319 231.044 497.442 229.211 500.518 232.223C500.849 233.174 500.841 232.718 500.638 233.633C498.532 235.964 478.925 237.432 475.099 240.386C471.278 243.337 471.497 247.32 471.003 251.772C470.529 255.921 470.096 260.075 469.705 264.233C469.439 267.176 469.271 270.285 468.751 273.189C468.488 274.66 468.045 274.951 466.875 275.713C465.93 275.769 465.985 275.745 465.084 275.415C462.638 273.126 462.362 250.536 461.088 245.732C458.435 235.732 446.338 237.94 438.256 235.318C436.4 234.716 432.444 234.712 432.001 232.68C434.005 229.46 457.668 230.839 459.933 225.26C462.422 219.129 462.327 210.229 463.409 203.565C463.894 200.578 463.484 197.238 465.885 195Z" fill="#080607"/>
<path d="M466.145 197.329C466.547 197.513 467.045 197.743 467.101 198.252C470.805 232.137 464.568 227.843 498.088 233.042C491.325 234.48 484.633 235.573 477.899 237.272C468.988 239.52 469.549 247.361 468.738 254.949C468.085 261.021 467.476 267.097 466.909 273.177L466.265 273.499C463.776 272.255 465.843 242.891 459.523 239.31C452.686 235.436 442.976 233.996 435.679 233.14C441.882 231.572 448.846 231.593 455.176 230.109C463.176 228.336 462.7 223.58 463.77 217.138C464.807 210.888 464.815 203.319 466.145 197.329Z" fill="#FAA640"/>
</g>
<defs>
<clipPath id="clip0_4661_15879">
<rect width="542" height="319" rx="48" fill="white"/>
</clipPath>
</defs>
</svg>
