<svg width="542" height="319" viewBox="0 0 542 319" fill="none" xmlns="http://www.w3.org/2000/svg">
<g clip-path="url(#clip0_4661_15808)">
<rect width="542" height="319" rx="48" fill="#8F78F7"/>
<path d="M162.732 223.798H162.024C157.965 223.42 154.661 221.863 152.112 219.125C149.563 216.293 148.289 212.942 148.289 209.071C148.289 206.806 148.431 204.115 148.714 201C149.752 182.12 150.271 167.912 150.271 158.378C150.271 155.357 150.177 150.92 149.988 145.067C149.799 139.215 149.091 133.55 147.864 128.075C146.637 123.166 144.796 120.712 142.342 120.712H141.634C139.085 121.845 137.008 125.385 135.403 131.332C133.893 137.185 132.76 143.463 132.005 150.165C131.25 156.868 130.778 161.965 130.589 165.458C130.494 167.535 130.164 169.942 129.598 172.68C129.031 175.417 127.804 177.919 125.916 180.185C124.122 182.356 121.243 183.677 117.278 184.149H116.004C112.7 184.149 109.726 183.205 107.083 181.317C104.44 179.335 102.693 176.55 101.844 172.963C101.466 170.131 101.089 166.166 100.711 161.068C100.333 155.027 99.8141 148.702 99.1533 142.094C97.5485 127.556 94.8109 120.287 90.9404 120.287L89.9492 120.429C84.5684 123.166 81.6419 138.507 81.1699 166.449L81.0283 182.733C81.0283 187.831 81.0755 192.74 81.1699 197.46L81.3115 208.222C81.3115 212.187 79.8955 215.585 77.0635 218.417C74.2314 221.249 70.7858 222.665 66.7266 222.665C62.7617 222.665 59.3633 221.249 56.5312 218.417C53.6992 215.585 52.2832 212.187 52.2832 208.222C52.2832 193.59 52.472 179.477 52.8496 165.883C53.3216 152.195 54.596 139.923 56.6729 129.066C58.8441 118.116 62.3841 109.337 67.293 102.729C72.2018 96.1204 78.9987 92.3916 87.6836 91.542L90.5156 91.4004C101.372 91.4004 110.151 96.1676 116.854 105.702C118.836 102.776 121.196 100.18 123.934 97.9141C129.598 93.666 135.923 91.542 142.908 91.542C144.324 91.542 145.787 91.6364 147.298 91.8252C158.815 93.6188 166.792 100.18 171.229 111.508C175.76 122.742 178.167 137.043 178.45 154.413L178.592 164.892C178.592 179.146 178.12 194.156 177.176 209.921C176.893 213.886 175.382 217.19 172.645 219.833C169.907 222.476 166.603 223.798 162.732 223.798ZM232.27 224.081C220.47 224.081 210.416 220.022 202.109 211.903C195.312 204.729 190.45 195.761 187.524 184.999C184.598 174.237 182.898 163.523 182.426 152.855C181.954 142.188 181.718 132.465 181.718 123.686L181.86 106.41C181.86 101.973 183.418 98.1973 186.533 95.082C189.648 91.9668 193.424 90.4092 197.861 90.4092C202.298 90.4092 206.074 91.9668 209.189 95.082C212.304 98.1973 213.862 101.973 213.862 106.41L213.72 125.385C213.72 130.671 213.815 136.335 214.004 142.377C214.948 166.732 218.535 182.356 224.765 189.247C225.52 190.002 226.417 190.663 227.456 191.229C228.588 191.796 230.193 192.079 232.27 192.079C237.179 192.079 240.861 189.105 243.315 183.158C245.864 177.117 247.657 169.281 248.696 159.652C249.829 149.929 250.631 139.356 251.103 127.934C251.481 120.193 251.906 113.065 252.378 106.552C252.944 102.021 254.738 98.4805 257.758 95.9316C260.874 93.3828 264.366 92.1084 268.237 92.1084C273.335 92.1084 277.441 93.902 280.556 97.4893C283.105 100.699 284.379 104.286 284.379 108.251V109.525C283.813 115.284 283.435 121.656 283.247 128.642L283.105 129.35C282.822 136.996 282.303 145.115 281.547 153.705C280.887 162.296 279.659 170.744 277.866 179.052C276.072 187.359 273.382 194.911 269.795 201.708C266.207 208.41 261.393 213.839 255.351 217.992C249.309 222.051 241.616 224.081 232.27 224.081ZM366.803 225.214C363.31 225.214 359.628 223.939 355.758 221.391C351.888 218.747 348.017 215.585 344.147 211.903C340.276 208.127 336.547 204.304 332.96 200.434C327.296 194.109 322.529 189.53 318.658 186.698C318.564 191.607 318.517 196.563 318.517 201.566V209.071C318.517 213.414 317.101 217.095 314.269 220.116C311.437 223.137 307.897 224.647 303.649 224.647C299.589 224.647 296.191 223.231 293.453 220.399C290.716 217.567 289.252 214.075 289.064 209.921C288.969 205.673 288.922 201.472 288.922 197.318C288.922 168.62 290.574 146.059 293.878 129.633C296.144 118.305 299.495 110.139 303.932 105.136C310.446 99.0941 318.422 96.0732 327.863 96.0732H329.987C340.465 96.6396 350.094 99.6133 358.873 104.994C371.806 113.679 378.273 124.205 378.273 136.571C378.273 139.875 377.801 143.321 376.857 146.908C373.081 158.897 364.962 168.007 352.501 174.237C361.847 181.601 370.532 190.427 378.556 200.717C380.538 203.643 381.529 206.758 381.529 210.062C381.529 214.783 379.594 218.795 375.724 222.099C372.892 224.175 369.918 225.214 366.803 225.214ZM320.499 151.864C331.167 150.637 338.483 148.513 342.447 145.492C346.507 142.377 348.536 139.734 348.536 137.562C348.536 135.958 347.734 134.353 346.129 132.748C340.843 128.594 334.895 126.518 328.287 126.518C326.966 126.518 325.833 126.659 324.889 126.942C323.095 131.19 321.632 139.498 320.499 151.864ZM461.971 225.214C458.478 225.214 454.796 223.939 450.926 221.391C447.055 218.747 443.185 215.585 439.314 211.903C435.444 208.127 431.715 204.304 428.128 200.434C422.464 194.109 417.696 189.53 413.826 186.698C413.732 191.607 413.684 196.563 413.684 201.566V209.071C413.684 213.414 412.268 217.095 409.436 220.116C406.604 223.137 403.064 224.647 398.816 224.647C394.757 224.647 391.359 223.231 388.621 220.399C385.883 217.567 384.42 214.075 384.231 209.921C384.137 205.673 384.09 201.472 384.09 197.318C384.09 168.62 385.742 146.059 389.046 129.633C391.311 118.305 394.663 110.139 399.099 105.136C405.613 99.0941 413.59 96.0732 423.03 96.0732H425.154C435.633 96.6396 445.262 99.6133 454.041 104.994C466.974 113.679 473.44 124.205 473.44 136.571C473.44 139.875 472.968 143.321 472.024 146.908C468.248 158.897 460.13 168.007 447.669 174.237C457.014 181.601 465.699 190.427 473.723 200.717C475.706 203.643 476.697 206.758 476.697 210.062C476.697 214.783 474.762 218.795 470.891 222.099C468.059 224.175 465.086 225.214 461.971 225.214ZM415.667 151.864C426.334 150.637 433.65 148.513 437.615 145.492C441.674 142.377 443.704 139.734 443.704 137.562C443.704 135.958 442.902 134.353 441.297 132.748C436.01 128.594 430.063 126.518 423.455 126.518C422.133 126.518 421 126.659 420.056 126.942C418.263 131.19 416.8 139.498 415.667 151.864Z" fill="#9D89F8"/>
<path d="M33.4392 28.5381C28.3128 25.0513 20.8056 21.7971 12.9767 19.2275C5.15838 16.6613 -2.89205 14.806 -9.06355 14.0805L-9.06486 14.081C-33.4492 11.1905 -57.9744 17.9119 -77.4588 32.7752L-61.0527 41.6368C-44.7779 28.9742 -22.3951 25.5094 -2.58099 28.2373L-2.54429 28.2425L-2.50847 28.2494L-0.810542 28.6139C34.0871 36.3968 60.6732 61.2702 65.0749 97.5974C65.9803 96.8705 66.7872 96.1617 67.5519 95.481C68.7114 94.4487 69.8119 93.4456 70.9815 92.5982C73.1273 91.0436 75.4977 90.0187 79.1189 89.846C71.1617 62.0673 58.079 44.2111 33.4681 28.5568L33.4541 28.5477L33.4392 28.5381Z" fill="#FF80AB" stroke="black" stroke-width="2.22505"/>
<path d="M30.2015 40.974C25.9671 38.8673 21.9117 36.8116 18.2474 35.1303C14.5563 33.4366 11.3439 32.1625 8.81433 31.6037L8.68063 31.5743L8.55909 31.5139C0.233616 27.3734 -12.899 26.194 -26.2401 28.1176C-38.9254 29.9466 -51.5681 34.5519 -60.2209 41.8198C-58.9851 42.3143 -57.4496 42.8114 -55.7024 43.309C-53.1641 44.0318 -50.2666 44.7399 -47.3413 45.4625C-44.4274 46.1824 -41.4873 46.9161 -38.9067 47.6832C-36.6257 48.3613 -34.5547 49.085 -33.0092 49.88C-31.5178 49.1094 -29.9891 48.4133 -28.428 47.7957L-27.677 47.505C-12.5835 41.7321 2.07292 43.6668 16.4057 50.0006L16.421 50.0071L16.4349 50.0141C37.1533 59.8943 48.4179 76.6272 50.4453 99.1293C53.7686 99.4138 57.3726 99.8164 60.496 99.6135L61.1719 99.5593C62.3747 99.4428 63.1511 99.16 63.6562 98.8207C64.1412 98.4949 64.4403 98.0747 64.6239 97.5394C65.0285 96.3599 64.8646 94.7026 64.5377 92.5569C61.2552 71.0113 48.453 52.6914 30.2015 40.974Z" fill="#C1BAFB" stroke="black" stroke-width="2.22505"/>
<path d="M30.2015 40.974C25.9671 38.8673 21.9117 36.8116 18.2474 35.1303C14.5563 33.4366 11.3439 32.1625 8.81433 31.6037L8.68063 31.5743L8.55909 31.5139C0.233616 27.3734 -12.899 26.194 -26.2401 28.1176C-38.9254 29.9466 -51.5681 34.5519 -60.2209 41.8198C-58.9851 42.3143 -57.4496 42.8114 -55.7024 43.309C-53.1641 44.0318 -50.2666 44.7399 -47.3413 45.4625C-44.4274 46.1824 -41.4873 46.9161 -38.9067 47.6832C-36.6257 48.3613 -34.5547 49.085 -33.0092 49.88C-31.5178 49.1094 -29.9891 48.4133 -28.428 47.7957L-27.677 47.505C-12.5835 41.7321 2.07292 43.6668 16.4057 50.0006L16.421 50.0071L16.4349 50.0141C37.1533 59.8943 48.4179 76.6272 50.4453 99.1293C53.7686 99.4138 57.3726 99.8164 60.496 99.6135L61.1719 99.5593C62.3747 99.4428 63.1511 99.16 63.6562 98.8207C64.1412 98.4949 64.4403 98.0747 64.6239 97.5394C65.0285 96.3599 64.8646 94.7026 64.5377 92.5569C61.2552 71.0113 48.453 52.6914 30.2015 40.974Z" fill="#E8BBF5" stroke="black" stroke-width="2.22505"/>
<path d="M85.9649 85.8527C84.7896 85.2191 83.7985 84.9335 82.9345 84.8713C81.9628 84.8013 81.0742 85.0081 80.1778 85.4296C79.264 85.8593 78.3529 86.5068 77.3491 87.3167C76.8495 87.7198 76.341 88.152 75.8015 88.6084C75.2655 89.0618 74.702 89.5378 74.1104 90.013C72.3762 91.406 70.8018 92.8771 69.0471 94.3781C67.327 95.8494 65.5032 97.2842 63.4341 98.436L63.2034 98.5644L62.9396 98.575C61.3761 98.6409 59.2121 98.515 56.8616 98.3618C54.4837 98.2068 51.8749 98.0211 49.3389 97.9503C46.7973 97.8794 44.3841 97.9265 42.405 98.2232C40.4995 98.509 39.2184 98.9969 38.5412 99.626C38.0893 100.834 38.2964 102.276 39.1287 104.002C39.9994 105.807 41.4647 107.734 43.1571 109.696C44.8749 111.687 46.6599 113.53 48.3017 115.376C49.8687 117.138 51.2918 118.888 51.9366 120.427C53.4731 124.098 53.2041 128.599 52.7857 132.962C52.3674 137.324 51.798 141.599 52.3132 145.419C52.7272 145.877 53.2466 146.376 53.7466 146.87C54.8476 147.19 56.1072 146.906 57.6295 146.016C59.2506 145.069 60.9672 143.552 62.7888 141.82C64.5732 140.124 66.466 138.213 68.3304 136.643C70.1876 135.079 72.1673 133.718 74.1979 133.202C77.6223 132.332 80.8798 132.219 84.0111 132.252C87.1812 132.285 90.1365 132.46 93.1815 132.212C95.678 132.009 97.3191 131.573 98.342 131.027C99.3203 130.504 99.6744 129.919 99.773 129.329C99.8847 128.662 99.7071 127.765 99.1536 126.603C98.6082 125.458 97.7594 124.181 96.7146 122.805C95.6735 121.434 94.4689 120.004 93.2278 118.546C91.9941 117.098 90.7222 115.619 89.5809 114.184C88.441 112.75 87.401 111.323 86.6362 109.966C85.8814 108.627 85.331 107.247 85.2982 105.929L85.2981 105.902C85.2965 102.564 85.6138 98.9784 85.8445 95.4855C86.0635 92.1689 86.2075 88.91 85.9649 85.8527Z" fill="#F6C041" stroke="black" stroke-width="2.22505"/>
<path d="M474.632 53.9022C477.429 55.7837 479.005 58.421 480.026 61.4735C481.105 64.701 481.526 68.2543 482.138 71.8321L482.281 72.6689L483.129 72.734C484.28 72.8227 485.427 72.9448 486.571 73.1006C488.148 73.3263 490.532 73.7948 492.699 74.5526C493.783 74.9315 494.781 75.3726 495.588 75.8719C496.406 76.3781 496.95 76.8969 497.23 77.3996C498.061 78.8929 498.096 80.2872 497.64 81.6272C497.168 83.0132 496.152 84.3856 494.803 85.7015C492.095 88.3424 488.367 90.4623 486.131 91.8156L485.481 92.2092L485.626 92.9552C486.11 95.4407 486.645 100.474 486.089 105.106C485.812 107.422 485.27 109.563 484.37 111.221C483.535 112.757 482.423 113.83 480.948 114.311L480.648 114.399C479.731 114.641 478.672 114.446 477.429 113.815C476.186 113.184 474.879 112.176 473.536 110.984C472.192 109.791 470.885 108.481 469.595 107.242C468.332 106.031 467.071 104.874 465.901 104.105L465.466 103.818L464.969 103.978L463.298 104.516L463.226 104.54L463.159 104.572C461.026 105.601 456.801 107.692 452.805 108.631C450.801 109.102 448.979 109.252 447.559 108.915C446.215 108.597 445.232 107.852 444.721 106.392C443.906 104.06 444.511 100.903 445.774 97.5056C447.024 94.1434 448.778 90.8851 449.98 88.341L450.304 87.6549L449.772 87.1135C447.897 85.2032 444.284 81.7639 442.094 78.109C441 76.2829 440.343 74.5297 440.353 72.9819C440.363 71.5159 440.972 70.1156 442.707 68.8855C444.659 67.5024 447.772 67.2247 451.31 67.5193C454.801 67.8101 458.37 68.6193 461.114 69.131L461.998 69.2954L462.328 68.4595C463.683 65.0236 465.055 61.6584 467.024 58.9823C468.889 56.4478 471.257 54.5759 474.632 53.9022Z" fill="#F6C041" stroke="black" stroke-width="2.17793"/>
<path d="M62.6319 191.902C65.4294 193.784 67.0054 196.421 68.026 199.473C69.1051 202.701 69.5262 206.254 70.1383 209.832L70.2813 210.669L71.1287 210.734C72.2795 210.823 73.4274 210.945 74.5708 211.101C76.1479 211.326 78.5318 211.795 80.6994 212.553C81.783 212.931 82.7806 213.373 83.5876 213.872C84.4055 214.378 84.9502 214.897 85.23 215.4C86.0607 216.893 86.0958 218.287 85.6398 219.627C85.168 221.013 84.152 222.386 82.8029 223.702C80.0951 226.342 76.3667 228.462 74.1314 229.816L73.4809 230.209L73.6263 230.955C74.1103 233.441 74.6446 238.474 74.0895 243.106C73.8118 245.422 73.2703 247.563 72.3697 249.221C71.5351 250.757 70.4234 251.83 68.9475 252.311L68.6475 252.399C67.7307 252.641 66.6716 252.446 65.4288 251.815C64.1863 251.184 62.8788 250.176 61.5358 248.984C60.1917 247.791 58.8855 246.481 57.5946 245.242C56.3319 244.031 55.0706 242.874 53.9013 242.105L53.4658 241.818L52.9692 241.978L51.2976 242.516L51.2258 242.54L51.1586 242.572C49.0255 243.601 44.8005 245.692 40.8048 246.631C38.8006 247.102 36.9785 247.252 35.5593 246.915C34.2149 246.597 33.2318 245.852 32.7213 244.392C31.9057 242.06 32.511 238.903 33.7742 235.506C35.0244 232.143 36.7778 228.885 37.9798 226.341L38.3038 225.655L37.7724 225.114C35.8967 223.203 32.2842 219.764 30.0944 216.109C29.0003 214.283 28.3425 212.53 28.3532 210.982C28.3634 209.516 28.9719 208.116 30.7072 206.885C32.6586 205.502 35.772 205.225 39.3099 205.519C42.8011 205.81 46.3702 206.619 49.1144 207.131L49.9981 207.295L50.3277 206.46C51.6825 203.024 53.0547 199.658 55.0238 196.982C56.8887 194.448 59.2572 192.576 62.6319 191.902Z" fill="#D5F27C" stroke="black" stroke-width="2.17793"/>
<path d="M11 344.5L544.405 367.105L564.5 207.5C564.5 207.5 549.644 171.666 515 172.501C480.356 173.336 472 216.998 472 216.998C472 216.998 451.479 175.889 416 190.498C381.939 204.523 400.835 248.302 402.4 251.778C400.849 248.429 381.415 208.091 351 222.498C316.161 239.001 326.105 279.451 326.105 279.451C326.105 279.451 304.818 242.72 271.426 246.477C231.133 251.01 221.338 288.216 221.338 288.216C221.338 288.216 213.825 227.694 172.503 236.459C130.639 245.339 150.798 304.078 150.798 304.078C150.798 304.078 139.528 271.938 111.98 279.451C81.9019 287.654 95.3769 328.505 98.4681 336.824C95.3438 329.091 79.4044 293.884 50 299C19.5299 304.301 11 344.5 11 344.5Z" fill="#D5F27C"/>
<path d="M544.405 367.105L11 344.5C11 344.5 19.5299 304.301 50 299C83 293.258 99.0406 338.304 99.0406 338.304C99.0406 338.304 78.4524 288.595 111.98 279.451C139.528 271.938 150.798 304.078 150.798 304.078C150.798 304.078 130.639 245.339 172.503 236.459C213.825 227.694 221.338 288.216 221.338 288.216C221.338 288.216 231.133 251.01 271.426 246.477C304.818 242.72 326.105 279.451 326.105 279.451C326.105 279.451 316.161 239.001 351 222.498C382.722 207.472 402.5 251.998 402.5 251.998C402.5 251.998 380.521 205.107 416 190.498C451.479 175.889 472 216.998 472 216.998C472 216.998 480.356 173.336 515 172.501C549.644 171.666 564.5 207.5 564.5 207.5L544.405 367.105Z" stroke="black" stroke-width="2.22612"/>
<path d="M399.548 240.049C400.205 249.51 400.205 257.349 400.241 266.863C399.193 267.093 398.078 267.349 397.145 267.503L397.103 267.51L397.062 267.521L393.636 268.412C389.938 269.321 384.871 270.649 380.997 271.275C381.008 271.148 381.02 271.018 381.029 270.885C381.077 270.179 381.102 269.333 381.108 268.398C381.122 266.528 381.066 264.261 380.987 261.966C380.829 257.342 380.579 252.653 380.584 250.669V250.668C380.585 250.436 380.525 249.784 380.449 249.007C380.37 248.196 380.263 247.168 380.151 246.124C379.993 244.633 379.827 243.115 379.722 242.134C384.801 241.45 389.76 240.711 394.834 240.27C396.102 240.281 397.341 240.181 398.542 240.102L398.543 240.103C398.721 240.093 398.921 240.075 399.072 240.064C399.238 240.052 399.379 240.045 399.506 240.047C399.52 240.047 399.534 240.048 399.548 240.049Z" fill="#46CEF5" stroke="black" stroke-width="1.8577"/>
<path d="M396.282 257.208C397.415 257.026 397.825 257.466 397.976 258.547C397.256 260.781 392.297 260.619 390.185 260.698C388.714 260.377 388.5 260.856 387.477 259.407C387.163 257.046 394.43 257.722 396.282 257.208Z" fill="#010101"/>
<path d="M392.627 245.62C394.379 245.985 395.532 244.871 396.638 246.493C396.766 247.32 396.84 246.948 396.447 247.653C395.102 248.6 392.712 248.604 391.088 248.532C389.776 249.408 386.345 248.961 386.663 246.727C387.693 245.727 390.71 245.918 392.4 245.657L392.627 245.62Z" fill="#010101"/>
<path d="M406.859 239.772C409.414 239.692 412.706 239.759 415.823 240.296C418.969 240.838 421.79 241.834 423.543 243.5C424.834 244.728 425.604 246.351 425.619 248.102C425.647 251.298 423.705 254.439 421.314 256.735H421.313C418.772 259.176 415.057 261.345 411.055 263.118C407.488 264.697 403.743 265.939 400.497 266.773C400.462 257.461 400.452 249.656 399.801 240.269C399.955 240.229 400.144 240.187 400.369 240.15C401.007 240.044 401.826 239.967 402.688 239.914C404.416 239.806 406.186 239.793 406.859 239.772Z" fill="#FAA640" stroke="black" stroke-width="1.8577"/>
<path d="M120.124 233.294C124.352 232.986 129.568 233.277 134.617 234.257C139.377 235.181 143.919 236.703 147.331 238.859C145.502 243.298 143.95 248.462 142.697 252.986C142.547 253.529 142.218 255.081 141.901 256.466C141.739 257.176 141.577 257.856 141.436 258.382C141.364 258.646 141.301 258.859 141.249 259.012C141.226 259.078 141.207 259.124 141.194 259.154L140.89 259.543L141.087 259.982C141.088 259.993 141.09 260.006 141.091 260.022C141.097 260.114 141.1 260.251 141.097 260.437C141.09 260.806 141.061 261.305 141.016 261.907C140.925 263.118 140.78 264.648 140.646 266.259C140.513 267.853 140.394 269.505 140.366 270.892C140.352 271.584 140.361 272.228 140.404 272.774C140.435 273.161 140.487 273.554 140.586 273.897C135.324 273.827 129.058 275.556 124.783 278.235C123.359 279.128 121.896 280.316 120.558 281.374C120.549 281.338 120.54 281.301 120.531 281.263C120.378 280.585 120.215 279.703 120.047 278.672C119.711 276.612 119.363 274.003 119.034 271.331C118.38 266.023 117.794 260.411 117.548 258.607L117.545 258.586L117.541 258.563C117.368 257.634 117.258 256.424 117.166 255.16C117.076 253.922 117.002 252.618 116.9 251.589C116.324 245.765 116.197 239.947 116.09 234.056C117.457 233.735 118.964 233.378 120.124 233.294ZM141.566 273.934C141.51 273.93 141.453 273.927 141.396 273.924L141.554 273.854C141.554 273.86 141.559 273.889 141.566 273.934Z" fill="#FAA640" stroke="black" stroke-width="1.8577"/>
<path d="M116.641 258.737C128.786 255.948 130.514 256.881 141.98 259.679C142.373 260.553 140.667 271.84 141.567 273.855C141.559 273.837 141.719 274.772 141.738 274.876C136.455 274.509 129.733 276.24 125.29 279.026C123.532 280.128 121.758 281.66 120.093 282.927C118.954 280.959 117.134 262.347 116.641 258.737Z" fill="#010101"/>
<path d="M125.773 279.811C129.905 277.222 136.128 275.568 141.126 275.773C143.664 281.141 145.245 283.809 149.213 287.981C145.729 289.581 142.98 291.231 140.614 293.385C137.977 295.786 135.864 298.768 133.717 302.891C133.229 303.828 132.746 304.963 132.289 306.016C132.042 306.585 131.802 307.127 131.571 307.62C126.119 301.059 123.42 291.632 121.145 283.281C122.703 282.068 124.227 280.782 125.774 279.812L125.773 279.811Z" fill="#FAA640" stroke="black" stroke-width="1.8577"/>
<path d="M150.804 288.29C152.106 288.995 153.191 289.839 154.435 290.427C156.425 291.367 160.318 292.161 162.151 293.015C156.714 295.972 151.531 305.01 149.858 310.914C148.588 315.398 148.522 317.985 148.866 322.474C143.989 321.785 134.559 313.479 131.776 309.27C132.67 307.714 133.606 305.122 134.544 303.322C138.777 295.194 142.754 291.799 150.804 288.29Z" fill="#010101"/>
<path d="M164.234 293.744C164.341 294.716 164.38 295.751 164.416 296.818C164.457 298.069 164.498 299.373 164.671 300.562C165.549 306.598 167.131 312.733 169.747 318.303C167.256 318.945 164.641 319.428 161.97 319.956C158.933 320.557 155.838 321.215 152.905 322.231C152.526 322.363 152.034 322.516 151.55 322.629C151.046 322.746 150.63 322.799 150.371 322.781L150.359 322.78H150.347C150.18 322.773 150.11 322.748 150.09 322.74C150.083 322.737 150.084 322.739 150.075 322.729C150.053 322.705 150.017 322.653 149.946 322.522C149.914 322.464 149.847 322.338 149.779 322.209C149.457 317.915 149.539 315.453 150.753 311.166C151.56 308.317 153.231 304.665 155.374 301.363C157.495 298.094 160.002 295.288 162.48 293.896C163.222 293.754 163.608 293.732 164.234 293.744Z" fill="#FAA640" stroke="black" stroke-width="1.8577"/>
<path d="M139.481 122.564C145.131 119.187 150.999 118.532 156.251 120.063C161.511 121.597 166.224 125.345 169.5 130.9C175.898 141.749 175.348 153.929 173.433 166.213C173.3 167.035 173.08 168.027 172.963 168.961L172.962 168.967C172.652 171.567 171.559 176.002 170.293 180.495C169.032 184.969 167.62 189.426 166.696 192.038L166.681 192.083L166.669 192.129C166.258 193.83 165.419 196.002 164.506 198.284C163.606 200.532 162.636 202.882 162.024 204.844L162.021 204.854C161.777 205.668 160.399 209.16 158.973 212.557C158.265 214.243 157.555 215.881 156.983 217.121C156.697 217.742 156.45 218.252 156.258 218.615C156.161 218.797 156.086 218.928 156.032 219.012C156.031 219.015 156.028 219.017 156.026 219.019L155.407 219.422L155.776 220.088C154.521 222.298 153.628 224.742 152.679 226.943C151.2 230.367 149.667 233.768 148.088 237.147C144.437 234.898 139.744 233.36 134.965 232.433C129.765 231.424 124.384 231.122 119.982 231.442C118.778 231.529 117.266 231.871 115.986 232.171C115.971 231.809 115.958 231.368 115.949 230.864C115.929 229.716 115.925 228.307 115.935 226.89C115.953 224.036 116.021 221.219 116.091 220.428L116.094 220.404L116.095 220.378C116.214 216.941 116.168 214.366 116.497 210.985L116.513 210.822L116.472 210.663C116.471 210.661 116.464 210.63 116.456 210.554C116.448 210.481 116.44 210.383 116.435 210.261C116.423 210.016 116.418 209.697 116.422 209.307C116.429 208.529 116.465 207.506 116.525 206.313C116.645 203.928 116.856 200.891 117.092 197.815C117.56 191.711 118.128 185.48 118.288 183.929C118.365 183.578 118.448 182.966 118.527 182.281C118.618 181.497 118.716 180.534 118.812 179.557C119.005 177.587 119.187 175.58 119.285 174.762L119.284 174.761C119.66 171.664 120.063 168.569 120.491 165.479L120.49 165.478C120.54 165.134 120.623 164.638 120.719 164.053C120.814 163.47 120.922 162.807 121.02 162.154C121.117 161.502 121.206 160.849 121.264 160.284C121.31 159.825 121.338 159.366 121.321 159.003C121.701 157.403 122.013 155.777 122.309 154.171C122.614 152.515 122.905 150.886 123.247 149.294C125.6 138.34 129.69 128.416 139.481 122.564Z" fill="#FAA640" stroke="black" stroke-width="1.8577"/>
<path d="M115.572 210.899C128.279 209.714 139.673 209.962 151.072 216.377C152.637 217.257 155.368 218.552 156.64 219.733L156.846 220.104C155.487 222.361 154.58 224.886 153.532 227.314C151.908 231.074 150.224 234.806 148.48 238.511C141.245 233.559 128.68 231.743 120.05 232.371C118.585 232.478 116.619 232.99 115.14 233.327C114.896 231.784 115.017 222.023 115.166 220.349C115.283 216.962 115.24 214.318 115.572 210.899Z" fill="#010101"/>
<path d="M120.398 158.923C128.596 157.552 139.746 157.873 147.792 159.79C155.086 161.528 166.629 163.822 172.734 168.206C173.128 168.487 173.515 168.779 173.894 169.081C173.254 174.442 169.446 187.082 167.582 192.351C166.046 192.1 161.083 188.754 158.39 187.834C146.184 183.664 130.053 181.453 117.378 183.8C117.636 182.786 118.173 176.316 118.372 174.655C118.749 171.552 119.152 168.452 119.581 165.355C119.787 163.936 120.516 160.025 120.398 158.923Z" fill="#010101"/>
<path d="M162.712 333.832C167.67 272.301 179.713 232.916 205.909 199.242L359.615 198.721C382.168 240.9 392.75 295.993 388.127 333.832H162.712Z" fill="#010101" stroke="black" stroke-width="1.8577"/>
<path d="M211.855 193.814C211.929 193.837 212.015 193.854 212.098 193.872C212.087 194.035 212.065 194.249 212.031 194.524C212.005 194.736 211.975 194.986 211.967 195.214C211.959 195.411 211.958 195.747 212.09 196.056C212.165 196.232 212.302 196.445 212.546 196.598C212.795 196.755 213.061 196.788 213.283 196.768C213.381 196.759 213.475 196.738 213.567 196.71C214.728 197.875 216.081 199.192 217.16 200.342L217.664 200.89L218.318 201.62L218.365 201.671L218.419 201.716C220.963 203.81 223.558 205.841 226.202 207.806L226.215 207.816L226.229 207.825L227.937 209.004L227.959 209.02L227.982 209.035C231.378 211.093 234.111 212.69 237.708 214.416L237.719 214.42L237.729 214.424L240.262 215.566L240.282 215.576L240.304 215.583C245.11 217.469 247.817 218.357 252.895 219.497L252.912 219.5L252.93 219.503L255.343 219.948C260.411 220.902 264.755 221.672 269.989 221.974C270.857 222.06 271.601 222.144 272.551 222.136C275.579 222.36 278.615 222.457 281.651 222.425H281.66C282.545 222.408 283.743 222.342 284.879 222.291C286.039 222.238 287.131 222.201 287.87 222.234H287.887L287.904 222.235C288.827 222.241 290.143 222.137 291.009 222.095L291.036 222.094L291.064 222.091C297.439 221.395 301.396 220.813 307.635 219.395L307.639 219.394C308.5 219.194 309.381 219.06 310.312 218.902L310.311 218.901C315.75 218.019 319.978 216.925 325.199 215.348L325.266 215.328L325.328 215.298C325.883 215.035 326.963 214.723 327.735 214.471L327.746 214.467C332.367 212.896 337.48 210.89 341.772 208.44L341.812 208.417L341.848 208.392C342.588 207.869 343.235 207.597 344.177 207.15L344.188 207.144L344.199 207.139C347.669 205.38 350.723 203.171 353.75 200.883L353.768 200.87L355.61 199.406L355.647 199.376L355.682 199.342C356.914 198.138 358.239 196.704 359.453 195.404C361.797 199.748 364.798 206.117 365.665 210.883C364.579 211.43 363.768 212.132 363.041 212.85C362.143 213.738 361.455 214.55 360.453 215.335C355.051 219.572 349.97 223.022 343.977 226.373C327.893 235.364 309.484 237.323 291.312 240.179C289.624 240.444 287.67 240.497 285.648 240.495C283.673 240.492 281.603 240.436 279.786 240.498C256.723 240.126 231.716 233.372 213.812 218.543C209.972 215.362 208.106 213.333 206.646 211.123C205.208 208.948 204.178 206.643 202.098 202.797C202.429 202.531 202.872 202.141 203.376 201.68C204.442 200.704 205.86 199.345 207.268 197.998C208.682 196.644 210.087 195.302 211.145 194.344C211.375 194.135 211.586 193.948 211.774 193.785C211.811 193.799 211.84 193.809 211.855 193.814ZM212.46 193.731C212.457 193.732 212.456 193.733 212.455 193.733C212.456 193.733 212.458 193.731 212.464 193.729C212.465 193.729 212.468 193.727 212.471 193.726C212.466 193.728 212.462 193.73 212.46 193.731Z" fill="#46CEF5" stroke="black" stroke-width="1.8577"/>
<path d="M307.421 218.49C308.317 218.282 309.24 218.142 310.148 217.987C311.102 221.569 313.415 229.749 311.919 233.159L311.47 233.552C308.935 232.97 308.77 226.385 308.388 224.214C308.086 222.5 307.47 220.151 307.421 218.49Z" fill="#010101"/>
<path d="M341.302 207.638C342.125 207.056 342.865 206.744 343.769 206.315C346.241 208.833 347.86 215.423 349.628 218.923C349.363 219.698 349.338 220.081 348.703 220.509C345.754 220.517 342.665 210.212 341.302 207.638Z" fill="#010101"/>
<path d="M287.907 221.306C288.797 221.312 290.043 221.213 290.96 221.168C291.21 223.854 293.15 235.956 289.729 236.279C288.931 235.682 288.77 235.106 288.679 234.053C288.315 229.868 288.081 225.495 287.907 221.306Z" fill="#010101"/>
<path d="M238.103 213.577L240.636 214.719C238.849 217.095 234.918 228.857 232.042 227.995C231.728 227.622 231.484 227.32 231.407 226.825C231.22 225.617 237.004 215.109 238.103 213.577Z" fill="#010101"/>
<path d="M270.061 221.048C270.962 221.136 271.662 221.217 272.574 221.207C272.763 222.98 272.025 233.84 271.106 235.036C270.479 235.246 270.001 235.588 269.42 235.747L269.09 235.477C268.304 233.526 269.402 222.987 270.061 221.048Z" fill="#010101"/>
<path d="M327.447 213.59C328.29 215.926 331.982 226.301 329.662 227.746C326.811 226.97 325.529 217.428 324.931 214.461C325.557 214.164 326.747 213.819 327.447 213.59Z" fill="#010101"/>
<path d="M253.091 218.59L255.504 219.035C254.725 223.913 253.643 227.366 252.764 232.005L252.651 232.129C252.017 232.814 251.743 233.149 250.842 233.18C250.523 232.988 250.326 232.958 250.225 232.637C249.521 230.397 252.379 220.346 253.091 218.59Z" fill="#010101"/>
<path d="M226.746 207.057L228.454 208.236C227.219 210.397 222.257 218.979 219.589 218.078C218.235 215.74 224.915 208.719 226.746 207.057Z" fill="#010101"/>
<path d="M219.007 201.001C218.292 203.3 215.126 206.229 213.563 208.139C212.525 209.407 210.775 211.974 208.981 211.659C208.292 211.17 208.45 211.424 208.198 210.705C208.989 208.176 215.988 201.815 218.353 200.272L219.007 201.001Z" fill="#010101"/>
<path d="M355.023 198.68C357.184 200.016 360.946 206.276 360.485 208.992L360.194 209.325C357.979 209.014 356.247 204.54 354.853 202.972C354.241 202.283 353.429 201.046 353.181 200.143L355.023 198.68Z" fill="#010101"/>
<path d="M206.245 278.628C209.223 279.966 207.295 282.06 206.79 284.469C206.388 285.922 206.01 288.631 206.629 290.075C210.95 300.157 218.031 290.63 221.882 286.027C222.424 285.379 223.136 285.159 223.834 285.17C226.281 286.664 221.21 296.661 228.57 300.009C232.749 299.316 235.673 297.797 238.032 294.127C239.027 292.578 239.472 291.5 240.896 290.316C241.575 290.319 241.714 290.646 242.346 291.184C242.146 293.983 239.197 298.185 237.02 300.038C232.286 304.069 224.813 304.389 222.263 297.745C221.827 296.61 221.618 293.173 220.992 292.394C218.246 294.573 216.446 297.127 212.637 297.38C202.197 298.071 201.448 284.858 206.245 278.628Z" fill="#46CEF5"/>
<path d="M361.183 289.7C361.973 290.725 363.031 292.173 364.078 293.594C365.247 295.18 366.428 296.765 367.136 297.57C367.157 297.64 367.178 297.705 367.198 297.758C367.259 297.922 367.338 298.105 367.424 298.292C367.597 298.666 367.822 299.105 368.049 299.536C368.523 300.436 368.978 301.242 369.142 301.576C370.742 304.83 372.544 308.192 373.431 311.612C374.306 314.986 374.255 318.298 372.231 321.471C369.778 325.319 365.746 326.154 361.241 325.498C357.004 324.88 352.563 322.958 349.169 321.246L348.505 320.907C347.33 320.3 346.135 319.769 345.001 319.245C344.044 318.802 343.12 318.36 342.231 317.865C342.89 313.071 345.594 307.37 349.228 302.135C352.796 296.993 357.178 292.42 361.183 289.7Z" fill="#FAA640" stroke="black" stroke-width="1.8577"/>
<path d="M352.54 279.056C353.894 280.824 355.402 282.522 356.884 284.215C358.386 285.932 359.867 287.654 361.196 289.497C356.965 292.387 352.459 297.129 348.823 302.368C345.305 307.437 342.525 313.084 341.639 318.101C339.522 316.761 337.397 315.433 335.264 314.119L332.719 312.559C332.086 312.173 330.952 311.542 329.974 310.966C329.467 310.668 328.984 310.375 328.581 310.109C328.321 309.937 328.115 309.789 327.961 309.668C332.668 298.739 339.097 287.372 349.271 281.12C350.363 280.449 351.438 279.89 352.54 279.056Z" fill="#46CEF5" stroke="black" stroke-width="1.8577"/>
<path d="M338.049 299.715C338.297 299.875 338.604 300.096 338.955 300.369C339.657 300.912 340.496 301.627 341.322 302.376C342.148 303.126 342.951 303.899 343.582 304.558C343.898 304.888 344.164 305.183 344.366 305.426C344.385 305.449 344.401 305.472 344.418 305.493C344.375 305.523 344.315 305.562 344.213 305.625C344.158 305.658 344.096 305.699 344.025 305.743C343.979 305.726 343.923 305.705 343.856 305.676C343.616 305.573 343.313 305.412 342.964 305.198C342.266 304.77 341.442 304.165 340.646 303.484C339.849 302.802 339.104 302.063 338.551 301.376C338.07 300.779 337.812 300.312 337.717 300.005C337.738 299.954 337.754 299.919 337.767 299.894C337.783 299.862 337.786 299.863 337.787 299.862C337.809 299.84 337.846 299.81 337.981 299.707C337.989 299.701 337.997 299.694 338.005 299.688C338.019 299.697 338.034 299.706 338.049 299.715Z" fill="#010101" stroke="black" stroke-width="1.8577"/>
<path d="M347.983 288.061C348.821 288.445 349.855 289.156 350.797 290.052C351.396 290.622 351.924 291.237 352.314 291.836C352.706 292.439 352.924 292.975 352.979 293.404C352.977 293.416 352.963 293.458 352.911 293.541C352.513 293.227 352.066 292.903 351.632 292.587C350.851 292.021 350.051 291.432 349.38 290.806C348.699 290.171 348.236 289.572 348.04 289.017C347.931 288.71 347.896 288.398 347.983 288.061Z" fill="#010101" stroke="black" stroke-width="1.8577"/>
<path d="M346.047 77.1504C347.513 76.7843 348.945 76.8576 350.353 77.4795C351.774 78.1075 353.238 79.3255 354.695 81.3613C355.231 82.1104 355.932 83.5666 356.711 85.4902C357.479 87.387 358.293 89.6579 359.071 91.9736C360.628 96.6078 362.023 101.376 362.588 103.612C366.949 120.881 371.851 140.965 371.984 158.645L371.898 162.257C371.814 163.213 371.562 164.725 371.316 166.202C371.088 167.574 370.853 168.984 370.823 169.703L370.257 173.343C369.678 175.764 368.768 178.792 368.278 181.252L366.946 184.02C365.224 186.774 364.271 188.773 363.24 190.637C362.204 192.51 361.031 194.364 358.78 196.993C357.362 198.497 355.83 200.189 354.403 201.586L352.615 203.007C349.599 205.286 346.658 207.406 343.348 209.085C342.504 209.485 341.691 209.833 340.811 210.446C336.677 212.802 331.709 214.758 327.144 216.311C326.538 216.508 325.312 216.868 324.6 217.189C319.447 218.744 315.312 219.813 309.993 220.675L309.985 220.677C309.321 220.79 308.613 220.901 307.907 221.04L307.204 221.189C301.064 222.585 297.184 223.157 290.878 223.847C289.915 223.894 288.75 223.988 287.901 223.982C287.068 223.948 285.91 223.99 284.78 224.041C283.611 224.094 282.462 224.157 281.609 224.174C278.615 224.205 275.62 224.109 272.634 223.888L272.595 223.885L272.556 223.886C271.704 223.895 271.059 223.821 270.143 223.73L270.124 223.729L270.105 223.728L269.155 223.667C264.453 223.339 260.422 222.623 255.669 221.728H255.665L253.259 221.283C248.309 220.172 245.695 219.314 240.973 217.462L238.496 216.346H238.497C234.994 214.666 232.328 213.11 228.965 211.072L227.289 209.916C224.691 207.984 222.14 205.989 219.64 203.933L219.031 203.255C217.723 201.798 215.756 199.915 214.399 198.534L214.396 198.531L212.196 196.314C210.289 193.37 208.853 190.28 207.625 186.964L207.617 186.942L207.608 186.923L206.412 184.109C205.531 181.333 204.86 178.208 204.171 175.277L203.678 172.344C203.644 170.891 203.261 168.774 203.079 167.448C200.852 151.179 203.763 134.89 207.452 118.9V118.899C209.707 109.081 212.142 99.1392 217.258 90.5859C219.877 86.2076 222.325 84.7196 224.664 84.7676C227.119 84.818 229.874 86.5399 233.107 89.665C239.981 96.3081 243.763 103 248.611 111.269L248.973 111.885L249.661 111.693C250.306 111.515 251.015 111.259 251.592 111.064L251.621 111.055L251.65 111.043C262.384 106.622 281.879 104.198 293.826 103.507C297.618 103.288 304.342 103.759 308.473 103.939C310.589 104.032 313 104.428 315.463 104.87C317.9 105.307 320.399 105.792 322.598 106.027L323.221 106.094L323.516 105.541C325.783 101.297 330.87 91.0828 336.892 84.0293C339.918 80.4849 343.051 77.8988 346.047 77.1504Z" fill="#FAA640" stroke="black" stroke-width="1.8577"/>
<path d="M261.175 140.765C261.87 140.655 264.462 140.613 265.249 140.609C271.777 140.564 277.235 140.68 283.003 144.178C290.505 148.727 290.673 159.518 286.225 166.218C282.553 171.75 273.309 174.934 266.799 176.139L266.467 176.193C259.357 177.314 251.081 176.819 244.988 172.5C237.385 167.108 236.541 156.945 242.209 149.819C247.353 143.353 253.363 141.779 261.175 140.765Z" fill="#040605"/>
<path d="M267.866 144.246C269.251 143.884 271.572 144.182 272.994 144.342C262.849 150.789 264.875 163.274 273.577 169.851C271.905 170.685 270.727 171.125 268.99 171.769C261.947 173.645 252.092 173.566 246.458 168.363C241.194 163.501 241.668 156.071 246.556 151.128C251.989 145.635 260.454 144.393 267.866 144.246Z" fill="#FCFCFD"/>
<path d="M325.918 137.659C334.82 136.704 350.656 139.403 351.58 150.841C352.714 164.884 337.538 171.861 325.432 172.91C319.467 173.922 309.19 172.588 304.362 168.963C297.573 163.867 297.994 155.455 302.98 149.232C308.691 142.106 317.087 138.721 325.918 137.659Z" fill="#040605"/>
<path d="M326.004 141.553C327.017 140.997 330.217 141.459 331.301 141.978C331.405 143.01 329.793 145.759 329.417 146.936C326.748 155.288 328.862 161.61 336.026 166.234C334.373 167.093 333.087 167.747 331.246 168.128C324.125 169.763 312.667 170.597 306.514 165.923C301.489 161.682 303.219 154.65 307.089 150.408C312.161 144.846 318.594 142.107 326.004 141.553Z" fill="#FCFCFD"/>
<path d="M248.769 111.586C259.658 107.101 281.828 103.276 293.782 102.584C297.637 102.361 304.451 102.836 308.522 103.015C312.894 103.206 311.758 104.181 316.071 104.643C316.933 104.859 323.205 105.294 323.366 106.031C324.649 111.892 327.127 119.602 325.935 125.444C324.907 129.742 323.992 132.048 320.762 134.177C318.742 134.356 317.694 134.629 316.071 133.231C313.466 130.986 312.083 127.876 310.707 124.802C307.606 117.872 305.562 110.542 302.362 103.626C302.854 110.422 303.106 117.076 301.866 123.838C301.013 128.481 300.1 136.003 294.005 136.414C292.419 136.521 290.666 135.848 289.523 134.676C285.242 129.425 282.447 122.419 279.819 116.254C278.46 113.066 277.532 110.069 276.087 107.077L276.068 107.397C275.71 114.131 278.777 138.561 268.57 138.716C261.451 138.825 250.801 116.914 248.769 111.586Z" fill="#010101"/>
<path d="M191.922 178.99C196.324 177.197 200.893 175.73 205.326 174.001C206.756 173.443 210.173 172.104 211.611 172.918C211.733 173.438 211.826 173.5 211.553 173.953C209.92 176.673 196.697 180.735 193.137 181.845C189.698 182.889 180.181 186.958 177.586 186.103C177.041 185.559 177.186 185.843 177.133 184.969C178.266 182.841 188.818 180.232 191.672 179.091L191.922 178.99Z" fill="#010101"/>
<path d="M189.137 166.998L189.347 166.991C192.989 166.831 205.225 164.725 207.916 165.94C208.443 166.704 207.641 168.476 207.099 168.542C201.353 169.237 195.452 169.423 189.646 170.022C186.805 170.407 177.917 172.301 175.923 170.662C175.655 169.849 175.704 170.174 175.869 169.297C176.757 168.208 186.859 167.34 189.137 166.998Z" fill="#010101"/>
<path d="M212.577 179.122L214.073 180.563C212.238 184.604 203.89 191.127 200.121 193.746C198.16 195.113 194.819 198.317 193.108 198.727C192.299 198.562 192.632 198.757 192.098 198.076C191.982 197.36 191.954 197.022 191.94 196.296L192.135 196.201C191.934 195.274 194.64 194.548 194.99 193.683L195.765 193.181C196.364 192.788 197.278 191.952 197.852 191.459C200.169 189.592 202.618 187.835 204.882 185.976C207.45 183.867 210.105 181.375 212.577 179.122Z" fill="#010101"/>
<path d="M254.421 180.686C268.903 179.009 276.52 192.773 267.699 204.348C265.273 207.53 261.401 209.321 257.455 209.762C253.619 209.857 249.967 209.147 246.661 207.099C243.524 205.119 241.298 201.977 240.468 198.36C239.682 194.914 240.288 191.297 242.154 188.297C244.849 183.964 249.655 181.836 254.421 180.686Z" fill="#FF80AB"/>
<path d="M336.598 173.88C339.921 173.762 342.884 173.701 345.952 175.122C349.044 176.526 351.449 179.105 352.637 182.288C353.916 185.808 353.491 191.212 351.774 194.505C349.393 199.072 346.821 200.966 342.167 202.607C321.158 204.426 321.398 177.515 336.598 173.88Z" fill="#FF80AB"/>
<path d="M306.052 173.794C305.64 173.124 305.036 173.162 304.352 172.993C304.352 172.993 296.299 170.253 293.056 173.247C292.395 173.857 291.589 175.023 291.589 175.023C292.319 179.688 294.261 181.238 296.36 184.995C297.246 186.581 292.659 190.02 289.871 186.663C288.44 184.941 286.965 181.001 284.673 181.966C283.13 183.832 285.069 186.79 286.332 188.323C291.52 194.614 295.919 192.054 300.784 187.903C306.273 192.15 311.279 188.782 314.094 183.47C314.913 181.923 318.955 175.35 316.457 173.768C313.638 171.983 312.509 176.154 311.976 178.203C310.96 182.108 308.517 188.049 303.39 184.9C302.652 183.153 307.593 176.301 306.052 173.794Z" fill="#040605"/>
<path d="M226.257 99.5684C227.033 99.7554 227.898 99.6527 228.632 100.02C234.097 102.753 238.047 109.126 240.168 114.634C236.836 116.394 232.38 117.734 228.734 119.507C225.03 121.426 224.019 121.474 219.911 124.047C219.435 117.088 219.742 103.887 226.257 99.5684Z" fill="#FF80AB"/>
<path d="M347.398 92.9663C353.503 93.2651 355.807 110.097 355.827 114.774C352.884 113.411 349.887 112.166 346.844 111.043C343.095 109.581 338.98 108.645 335.064 107.674C337.896 102.646 341.623 94.6566 347.398 92.9663Z" fill="#FF80AB"/>
<path d="M374.609 172.007C371.916 171.584 365.379 171.516 363.962 169.394C363.834 168.616 363.747 168.95 364.167 168.345C366.389 167.103 372.516 167.979 375.187 168.293C380.887 168.77 386.553 169.308 392.287 169.639C393.926 169.734 394.859 172.318 392.888 173.342C390.166 174.757 376.221 171.543 374.609 172.007Z" fill="#010101"/>
<path d="M371.195 182.957C369.013 182.255 360.368 179.864 360.671 177.065C362.498 175.006 370.585 178.844 372.597 180.046C373.98 180.49 391.188 186.181 384.855 188.937C382.997 189.745 374.349 184.24 371.195 182.957Z" fill="#010101"/>
<path d="M376.352 157.156L384.702 155.765C386.511 155.448 388.479 154.702 390.196 155.47C390.89 154.829 389.752 154.907 391.039 154.805C392.078 155.238 392.538 156.308 392.391 157.391C391.418 158.775 382.621 160.148 381.332 159.441C378.813 160.396 378.594 160.226 376.266 160.792C373.639 161.117 366.305 163.711 364.659 161.483C364.633 159.141 374.272 157.406 376.352 157.156Z" fill="#010101"/>
<path d="M298.907 182.401L292.661 173.202C292.661 173.202 296.317 171.083 298.907 170.945C301.483 170.808 305.325 172.508 305.325 172.508L298.907 182.401Z" fill="#FF80AB"/>
</g>
<defs>
<clipPath id="clip0_4661_15808">
<rect width="542" height="319" rx="48" fill="white"/>
</clipPath>
</defs>
</svg>
