<svg width="58" height="58" viewBox="0 0 58 58" fill="none" xmlns="http://www.w3.org/2000/svg">
<circle cx="28.9067" cy="28.9067" r="28.9067" fill="#8F78F7"/>
<path d="M28.4492 44.9098V12.9073C28.4492 12.3685 28.8601 11.9316 29.3669 11.9316C29.8737 11.9316 30.2846 12.3685 30.2846 12.9073V44.9098C30.2846 45.4487 29.8737 45.8855 29.3669 45.8855C28.8601 45.8855 28.4492 45.4487 28.4492 44.9098Z" fill="white"/>
<path d="M12.8799 28.4502L44.0175 28.4502C44.5418 28.4502 44.9668 28.8611 44.9668 29.3679C44.9668 29.8747 44.5418 30.2855 44.0175 30.2855L12.8799 30.2855C12.3556 30.2855 11.9306 29.8747 11.9306 29.3679C11.9306 28.8611 12.3556 28.4502 12.8799 28.4502Z" fill="white"/>
</svg>
