<svg width="43" height="43" viewBox="0 0 43 43" fill="none" xmlns="http://www.w3.org/2000/svg">
<rect x="3.14552" width="39.2948" height="39.2948" rx="19.6474" transform="rotate(4.5914 3.14552 0)" fill="#D5F27C"/>
<path d="M12.1572 20C11.605 20 11.1572 20.4477 11.1572 21C11.1572 21.5523 11.605 22 12.1572 22L12.1572 21L12.1572 20ZM30.8643 21.7071C31.2549 21.3166 31.2549 20.6834 30.8643 20.2929L24.5004 13.9289C24.1099 13.5384 23.4767 13.5384 23.0862 13.9289C22.6956 14.3195 22.6956 14.9526 23.0862 15.3431L28.743 21L23.0862 26.6569C22.6956 27.0474 22.6956 27.6805 23.0862 28.0711C23.4767 28.4616 24.1099 28.4616 24.5004 28.0711L30.8643 21.7071ZM12.1572 21L12.1572 22L30.1572 22L30.1572 21L30.1572 20L12.1572 20L12.1572 21Z" fill="black"/>
</svg>
